M48
; DRILL file {KiCad 8.0.1} date 2024-06-07T20:19:09+0200
; FORMAT={-:-/ absolute / inch / decimal}
; #@! TF.CreationDate,2024-06-07T20:19:09+02:00
; #@! TF.GenerationSoftware,Kicad,Pcbnew,8.0.1
; #@! TF.FileFunction,Plated,1,2,PTH
FMAT,2
INCH
; #@! TA.AperFunction,Plated,PTH,ViaDrill
T1C0.0157
; #@! TA.AperFunction,Plated,PTH,ComponentDrill
T2C0.0315
; #@! TA.AperFunction,Plated,PTH,ComponentDrill
T3C0.0394
; #@! TA.AperFunction,Plated,PTH,ComponentDrill
T4C0.0600
; #@! TA.AperFunction,Plated,PTH,ViaDrill
T5C0.1181
%
G90
G05
T1
X1.9882Y-3.3858
X1.9882Y-3.5236
X2.0669Y-3.8583
X2.2244Y-4.0945
X2.2638Y-3.4646
X2.3228Y-3.3858
X2.3425Y-3.3465
X2.3425Y-3.5039
X2.3622Y-3.8386
X2.3622Y-4.4882
X2.3819Y-3.4252
X2.4803Y-3.3071
X2.5Y-5.1969
X2.5Y-5.5709
X2.5787Y-3.3268
X2.5984Y-3.8386
X2.6181Y-3.6024
X2.6575Y-3.622
X2.6575Y-4.5669
X2.6575Y-5.1575
X2.6575Y-5.4724
X2.6772Y-3.5039
X2.7165Y-4.1142
X2.7165Y-4.7244
X2.7362Y-3.7402
X2.7559Y-4.5472
X2.8346Y-3.4646
X2.8346Y-4.4488
X2.8346Y-4.6063
X2.8346Y-4.8425
X2.8543Y-3.7795
X2.8543Y-4.9606
X2.874Y-4.6654
X2.9331Y-5.1575
X2.9331Y-5.315
X2.9528Y-4.1142
X2.9528Y-4.3701
X2.9921Y-4.5472
X3.0512Y-3.9173
X3.0512Y-4.5866
X3.0512Y-4.8819
X3.0709Y-5.315
X3.0906Y-5.4528
X3.1102Y-4.8819
X3.1299Y-3.4055
X3.1496Y-3.563
X3.189Y-4.5866
X3.189Y-4.6457
X3.2087Y-3.8386
X3.2283Y-4.8425
X3.2283Y-5.0787
X3.248Y-4.6063
X3.2677Y-4.4882
X3.2677Y-4.8622
X3.3071Y-4.311
X3.3071Y-4.3504
X3.3268Y-4.2126
X3.3268Y-5.1181
X3.3268Y-5.315
X3.3661Y-4.2913
X3.3661Y-4.6063
X3.4055Y-4.9213
X3.4449Y-3.7008
X3.4646Y-4.3504
X3.5236Y-3.7992
X3.5433Y-3.4055
X3.5433Y-4.626
X3.5433Y-4.7244
X3.5433Y-4.8425
X3.563Y-5.315
X3.5827Y-5.1575
X3.7008Y-5.5512
X3.878Y-3.9764
X4.0354Y-5.6496
X4.0551Y-5.3346
X4.1929Y-3.937
X4.1929Y-4.2126
X4.2717Y-5.8071
X4.2913Y-5.6299
X4.6063Y-5.6102
X4.6063Y-5.8661
T2
X3.6417Y-4.4272
X3.6417Y-4.6201
T3
X2.1839Y-4.6217
X2.1839Y-4.7217
X2.1839Y-4.8217
X2.2839Y-4.6217
X2.2839Y-4.7217
X2.2839Y-4.8217
X2.7953Y-5.2087
X2.7953Y-5.3087
X2.7953Y-5.4087
X2.7953Y-5.5087
X2.7953Y-5.6087
X2.7953Y-5.7087
X3.2087Y-5.2087
X3.2087Y-5.3087
X3.2087Y-5.4087
X3.2087Y-5.5087
X3.2087Y-5.6087
X3.2087Y-5.7087
X3.4449Y-5.2087
X3.4449Y-5.3087
X3.4449Y-5.4087
X3.4449Y-5.5087
X3.4449Y-5.6087
X3.4449Y-5.7087
X3.7992Y-5.2087
X3.7992Y-5.3087
X3.7992Y-5.4087
X3.7992Y-5.5087
X3.7992Y-5.6087
X3.7992Y-5.7087
X3.9354Y-3.8764
X4.0354Y-3.8764
X4.2913Y-3.8354
X4.2913Y-3.9354
X4.2913Y-4.0354
T4
X1.752Y-3.3661
X1.752Y-3.563
X3.248Y-3.4055
X3.248Y-3.6024
T5
X2.0276Y-5.6102
X4.6063Y-3.5039
M30
