%TF.GenerationSoftware,KiCad,Pcbnew,8.0.1*%
%TF.CreationDate,2024-06-07T20:18:40+02:00*%
%TF.ProjectId,minisumo,6d696e69-7375-46d6-9f2e-6b696361645f,rev?*%
%TF.SameCoordinates,Original*%
%TF.FileFunction,Paste,Top*%
%TF.FilePolarity,Positive*%
%FSLAX46Y46*%
G04 Gerber Fmt 4.6, Leading zero omitted, Abs format (unit mm)*
G04 Created by KiCad (PCBNEW 8.0.1) date 2024-06-07 20:18:40*
%MOMM*%
%LPD*%
G01*
G04 APERTURE LIST*
G04 Aperture macros list*
%AMRoundRect*
0 Rectangle with rounded corners*
0 $1 Rounding radius*
0 $2 $3 $4 $5 $6 $7 $8 $9 X,Y pos of 4 corners*
0 Add a 4 corners polygon primitive as box body*
4,1,4,$2,$3,$4,$5,$6,$7,$8,$9,$2,$3,0*
0 Add four circle primitives for the rounded corners*
1,1,$1+$1,$2,$3*
1,1,$1+$1,$4,$5*
1,1,$1+$1,$6,$7*
1,1,$1+$1,$8,$9*
0 Add four rect primitives between the rounded corners*
20,1,$1+$1,$2,$3,$4,$5,0*
20,1,$1+$1,$4,$5,$6,$7,0*
20,1,$1+$1,$6,$7,$8,$9,0*
20,1,$1+$1,$8,$9,$2,$3,0*%
G04 Aperture macros list end*
%ADD10R,1.750000X0.450000*%
%ADD11RoundRect,0.250001X-0.499999X-0.924999X0.499999X-0.924999X0.499999X0.924999X-0.499999X0.924999X0*%
%ADD12RoundRect,0.250000X-0.350000X-0.450000X0.350000X-0.450000X0.350000X0.450000X-0.350000X0.450000X0*%
%ADD13RoundRect,0.250000X-0.450000X0.325000X-0.450000X-0.325000X0.450000X-0.325000X0.450000X0.325000X0*%
%ADD14RoundRect,0.250000X0.350000X0.450000X-0.350000X0.450000X-0.350000X-0.450000X0.350000X-0.450000X0*%
%ADD15R,0.900000X0.800000*%
%ADD16RoundRect,0.250000X0.450000X-0.325000X0.450000X0.325000X-0.450000X0.325000X-0.450000X-0.325000X0*%
%ADD17RoundRect,0.250000X0.325000X0.450000X-0.325000X0.450000X-0.325000X-0.450000X0.325000X-0.450000X0*%
%ADD18RoundRect,0.375000X-0.625000X-0.375000X0.625000X-0.375000X0.625000X0.375000X-0.625000X0.375000X0*%
%ADD19RoundRect,0.500000X-0.500000X-1.400000X0.500000X-1.400000X0.500000X1.400000X-0.500000X1.400000X0*%
%ADD20RoundRect,0.250001X0.499999X0.924999X-0.499999X0.924999X-0.499999X-0.924999X0.499999X-0.924999X0*%
%ADD21R,1.600000X0.550000*%
%ADD22R,0.550000X1.600000*%
G04 APERTURE END LIST*
D10*
%TO.C,U2*%
X77300000Y-92275000D03*
X77300000Y-91625000D03*
X77300000Y-90975000D03*
X77300000Y-90325000D03*
X77300000Y-89675000D03*
X77300000Y-89025000D03*
X77300000Y-88375000D03*
X77300000Y-87725000D03*
X77300000Y-87075000D03*
X77300000Y-86425000D03*
X77300000Y-85775000D03*
X77300000Y-85125000D03*
X70100000Y-85125000D03*
X70100000Y-85775000D03*
X70100000Y-86425000D03*
X70100000Y-87075000D03*
X70100000Y-87725000D03*
X70100000Y-88375000D03*
X70100000Y-89025000D03*
X70100000Y-89675000D03*
X70100000Y-90325000D03*
X70100000Y-90975000D03*
X70100000Y-91625000D03*
X70100000Y-92275000D03*
%TD*%
D11*
%TO.C,C8*%
X79750000Y-102500000D03*
X83000000Y-102500000D03*
%TD*%
D12*
%TO.C,R7*%
X79000000Y-126000000D03*
X81000000Y-126000000D03*
%TD*%
D13*
%TO.C,C14*%
X96500000Y-112425000D03*
X96500000Y-114475000D03*
%TD*%
D14*
%TO.C,R10*%
X93000000Y-143500000D03*
X91000000Y-143500000D03*
%TD*%
D15*
%TO.C,Q2*%
X100000000Y-101550000D03*
X100000000Y-103450000D03*
X102100000Y-102500000D03*
%TD*%
D16*
%TO.C,C15*%
X96500000Y-119000000D03*
X96500000Y-116950000D03*
%TD*%
D12*
%TO.C,R14*%
X75500000Y-142500000D03*
X77500000Y-142500000D03*
%TD*%
D17*
%TO.C,C4*%
X75875000Y-101500000D03*
X73825000Y-101500000D03*
%TD*%
D13*
%TO.C,C16*%
X75500000Y-118950000D03*
X75500000Y-121000000D03*
%TD*%
D18*
%TO.C,U7*%
X97850000Y-89160000D03*
X97850000Y-91460000D03*
D19*
X104150000Y-91460000D03*
D18*
X97850000Y-93760000D03*
%TD*%
D12*
%TO.C,R3*%
X111000000Y-148000000D03*
X113000000Y-148000000D03*
%TD*%
D14*
%TO.C,R2*%
X76500000Y-126000000D03*
X74500000Y-126000000D03*
%TD*%
D12*
%TO.C,R4*%
X100000000Y-145000000D03*
X102000000Y-145000000D03*
%TD*%
D13*
%TO.C,C13*%
X74500000Y-114975000D03*
X74500000Y-117025000D03*
%TD*%
D12*
%TO.C,R12*%
X65500000Y-142500000D03*
X67500000Y-142500000D03*
%TD*%
%TO.C,R9*%
X61000000Y-123000000D03*
X63000000Y-123000000D03*
%TD*%
D17*
%TO.C,D1*%
X67525000Y-123000000D03*
X65475000Y-123000000D03*
%TD*%
D11*
%TO.C,C5*%
X57850000Y-100000000D03*
X61100000Y-100000000D03*
%TD*%
D14*
%TO.C,R13*%
X77500000Y-146000000D03*
X75500000Y-146000000D03*
%TD*%
D20*
%TO.C,C11*%
X94125000Y-93960000D03*
X90875000Y-93960000D03*
%TD*%
D14*
%TO.C,R6*%
X93000000Y-146000000D03*
X91000000Y-146000000D03*
%TD*%
D11*
%TO.C,C7*%
X79750000Y-97500000D03*
X83000000Y-97500000D03*
%TD*%
D21*
%TO.C,U1*%
X87750000Y-119200000D03*
X87750000Y-118400000D03*
X87750000Y-117600000D03*
X87750000Y-116800000D03*
X87750000Y-116000000D03*
X87750000Y-115200000D03*
X87750000Y-114400000D03*
X87750000Y-113600000D03*
D22*
X86300000Y-112150000D03*
X85500000Y-112150000D03*
X84700000Y-112150000D03*
X83900000Y-112150000D03*
X83100000Y-112150000D03*
X82300000Y-112150000D03*
X81500000Y-112150000D03*
X80700000Y-112150000D03*
D21*
X79250000Y-113600000D03*
X79250000Y-114400000D03*
X79250000Y-115200000D03*
X79250000Y-116000000D03*
X79250000Y-116800000D03*
X79250000Y-117600000D03*
X79250000Y-118400000D03*
X79250000Y-119200000D03*
D22*
X80700000Y-120650000D03*
X81500000Y-120650000D03*
X82300000Y-120650000D03*
X83100000Y-120650000D03*
X83900000Y-120650000D03*
X84700000Y-120650000D03*
X85500000Y-120650000D03*
X86300000Y-120650000D03*
%TD*%
D14*
%TO.C,R5*%
X102000000Y-142000000D03*
X100000000Y-142000000D03*
%TD*%
%TO.C,R11*%
X67500000Y-146000000D03*
X65500000Y-146000000D03*
%TD*%
D17*
%TO.C,C2*%
X54475000Y-105500000D03*
X52425000Y-105500000D03*
%TD*%
%TO.C,D2*%
X67525000Y-118000000D03*
X65475000Y-118000000D03*
%TD*%
%TO.C,C3*%
X75925000Y-97000000D03*
X73875000Y-97000000D03*
%TD*%
%TO.C,C1*%
X54525000Y-100000000D03*
X52475000Y-100000000D03*
%TD*%
D12*
%TO.C,R1*%
X111000000Y-144000000D03*
X113000000Y-144000000D03*
%TD*%
%TO.C,R8*%
X61000000Y-118000000D03*
X63000000Y-118000000D03*
%TD*%
D10*
%TO.C,U3*%
X48544000Y-84100000D03*
X48544000Y-84750000D03*
X48544000Y-85400000D03*
X48544000Y-86050000D03*
X48544000Y-86700000D03*
X48544000Y-87350000D03*
X48544000Y-88000000D03*
X48544000Y-88650000D03*
X48544000Y-89300000D03*
X48544000Y-89950000D03*
X48544000Y-90600000D03*
X48544000Y-91250000D03*
X55744000Y-91250000D03*
X55744000Y-90600000D03*
X55744000Y-89950000D03*
X55744000Y-89300000D03*
X55744000Y-88650000D03*
X55744000Y-88000000D03*
X55744000Y-87350000D03*
X55744000Y-86700000D03*
X55744000Y-86050000D03*
X55744000Y-85400000D03*
X55744000Y-84750000D03*
X55744000Y-84100000D03*
%TD*%
D20*
%TO.C,C12*%
X94125000Y-89460000D03*
X90875000Y-89460000D03*
%TD*%
D11*
%TO.C,C6*%
X58250000Y-106000000D03*
X61500000Y-106000000D03*
%TD*%
M02*
