%TF.GenerationSoftware,KiCad,Pcbnew,8.0.1*%
%TF.CreationDate,2024-06-07T20:18:40+02:00*%
%TF.ProjectId,minisumo,6d696e69-7375-46d6-9f2e-6b696361645f,rev?*%
%TF.SameCoordinates,Original*%
%TF.FileFunction,Soldermask,Bot*%
%TF.FilePolarity,Negative*%
%FSLAX46Y46*%
G04 Gerber Fmt 4.6, Leading zero omitted, Abs format (unit mm)*
G04 Created by KiCad (PCBNEW 8.0.1) date 2024-06-07 20:18:40*
%MOMM*%
%LPD*%
G01*
G04 APERTURE LIST*
G04 Aperture macros list*
%AMRoundRect*
0 Rectangle with rounded corners*
0 $1 Rounding radius*
0 $2 $3 $4 $5 $6 $7 $8 $9 X,Y pos of 4 corners*
0 Add a 4 corners polygon primitive as box body*
4,1,4,$2,$3,$4,$5,$6,$7,$8,$9,$2,$3,0*
0 Add four circle primitives for the rounded corners*
1,1,$1+$1,$2,$3*
1,1,$1+$1,$4,$5*
1,1,$1+$1,$6,$7*
1,1,$1+$1,$8,$9*
0 Add four rect primitives between the rounded corners*
20,1,$1+$1,$2,$3,$4,$5,0*
20,1,$1+$1,$4,$5,$6,$7,0*
20,1,$1+$1,$6,$7,$8,$9,0*
20,1,$1+$1,$8,$9,$2,$3,0*%
G04 Aperture macros list end*
%ADD10R,1.700000X1.700000*%
%ADD11O,1.700000X1.700000*%
%ADD12C,1.500000*%
%ADD13C,2.524000*%
%ADD14RoundRect,0.197500X0.197500X0.632500X-0.197500X0.632500X-0.197500X-0.632500X0.197500X-0.632500X0*%
%ADD15RoundRect,0.197500X-0.197500X-0.632500X0.197500X-0.632500X0.197500X0.632500X-0.197500X0.632500X0*%
G04 APERTURE END LIST*
D10*
%TO.C,J4*%
X71000000Y-132300000D03*
D11*
X71000000Y-134840000D03*
X71000000Y-137380000D03*
X71000000Y-139920000D03*
X71000000Y-142460000D03*
X71000000Y-145000000D03*
%TD*%
D10*
%TO.C,J5*%
X81500000Y-132300000D03*
D11*
X81500000Y-134840000D03*
X81500000Y-137380000D03*
X81500000Y-139920000D03*
X81500000Y-142460000D03*
X81500000Y-145000000D03*
%TD*%
D12*
%TO.C,Y1*%
X92500000Y-117350000D03*
X92500000Y-112450000D03*
%TD*%
D13*
%TO.C,M2*%
X82500000Y-91500000D03*
X82500000Y-86500000D03*
%TD*%
D10*
%TO.C,J1*%
X58010000Y-122470000D03*
D11*
X55470000Y-122470000D03*
X58010000Y-119930000D03*
X55470000Y-119930000D03*
X58010000Y-117390000D03*
X55470000Y-117390000D03*
%TD*%
D10*
%TO.C,J3*%
X109000000Y-97420000D03*
D11*
X109000000Y-99960000D03*
X109000000Y-102500000D03*
%TD*%
D10*
%TO.C,J6*%
X87500000Y-132300000D03*
D11*
X87500000Y-134840000D03*
X87500000Y-137380000D03*
X87500000Y-139920000D03*
X87500000Y-142460000D03*
X87500000Y-145000000D03*
%TD*%
D10*
%TO.C,J2*%
X102500000Y-98460000D03*
D11*
X99960000Y-98460000D03*
%TD*%
D10*
%TO.C,J7*%
X96500000Y-132300000D03*
D11*
X96500000Y-134840000D03*
X96500000Y-137380000D03*
X96500000Y-139920000D03*
X96500000Y-142460000D03*
X96500000Y-145000000D03*
%TD*%
D13*
%TO.C,M1*%
X44500000Y-90500000D03*
X44500000Y-85500000D03*
%TD*%
D14*
%TO.C,U4*%
X121400000Y-149000000D03*
X121400000Y-145000000D03*
X119600000Y-149000000D03*
X119600000Y-145000000D03*
%TD*%
D15*
%TO.C,U5*%
X43100000Y-144500000D03*
X43100000Y-148500000D03*
X44900000Y-144500000D03*
X44900000Y-148500000D03*
%TD*%
M02*
