%TF.GenerationSoftware,KiCad,Pcbnew,8.0.1*%
%TF.CreationDate,2024-06-07T20:18:40+02:00*%
%TF.ProjectId,minisumo,6d696e69-7375-46d6-9f2e-6b696361645f,rev?*%
%TF.SameCoordinates,Original*%
%TF.FileFunction,Legend,Bot*%
%TF.FilePolarity,Positive*%
%FSLAX46Y46*%
G04 Gerber Fmt 4.6, Leading zero omitted, Abs format (unit mm)*
G04 Created by KiCad (PCBNEW 8.0.1) date 2024-06-07 20:18:40*
%MOMM*%
%LPD*%
G01*
G04 APERTURE LIST*
%ADD10C,0.150000*%
%ADD11C,0.100000*%
%ADD12C,0.120000*%
G04 APERTURE END LIST*
D10*
X117454819Y-145738095D02*
X118264342Y-145738095D01*
X118264342Y-145738095D02*
X118359580Y-145785714D01*
X118359580Y-145785714D02*
X118407200Y-145833333D01*
X118407200Y-145833333D02*
X118454819Y-145928571D01*
X118454819Y-145928571D02*
X118454819Y-146119047D01*
X118454819Y-146119047D02*
X118407200Y-146214285D01*
X118407200Y-146214285D02*
X118359580Y-146261904D01*
X118359580Y-146261904D02*
X118264342Y-146309523D01*
X118264342Y-146309523D02*
X117454819Y-146309523D01*
X117788152Y-147214285D02*
X118454819Y-147214285D01*
X117407200Y-146976190D02*
X118121485Y-146738095D01*
X118121485Y-146738095D02*
X118121485Y-147357142D01*
D11*
X121884687Y-149946895D02*
X122341830Y-149946895D01*
X122113258Y-149946895D02*
X122113258Y-149146895D01*
X122113258Y-149146895D02*
X122189449Y-149261180D01*
X122189449Y-149261180D02*
X122265639Y-149337371D01*
X122265639Y-149337371D02*
X122341830Y-149375466D01*
D10*
X40954819Y-145738095D02*
X41764342Y-145738095D01*
X41764342Y-145738095D02*
X41859580Y-145785714D01*
X41859580Y-145785714D02*
X41907200Y-145833333D01*
X41907200Y-145833333D02*
X41954819Y-145928571D01*
X41954819Y-145928571D02*
X41954819Y-146119047D01*
X41954819Y-146119047D02*
X41907200Y-146214285D01*
X41907200Y-146214285D02*
X41859580Y-146261904D01*
X41859580Y-146261904D02*
X41764342Y-146309523D01*
X41764342Y-146309523D02*
X40954819Y-146309523D01*
X40954819Y-147261904D02*
X40954819Y-146785714D01*
X40954819Y-146785714D02*
X41431009Y-146738095D01*
X41431009Y-146738095D02*
X41383390Y-146785714D01*
X41383390Y-146785714D02*
X41335771Y-146880952D01*
X41335771Y-146880952D02*
X41335771Y-147119047D01*
X41335771Y-147119047D02*
X41383390Y-147214285D01*
X41383390Y-147214285D02*
X41431009Y-147261904D01*
X41431009Y-147261904D02*
X41526247Y-147309523D01*
X41526247Y-147309523D02*
X41764342Y-147309523D01*
X41764342Y-147309523D02*
X41859580Y-147261904D01*
X41859580Y-147261904D02*
X41907200Y-147214285D01*
X41907200Y-147214285D02*
X41954819Y-147119047D01*
X41954819Y-147119047D02*
X41954819Y-146880952D01*
X41954819Y-146880952D02*
X41907200Y-146785714D01*
X41907200Y-146785714D02*
X41859580Y-146738095D01*
D11*
X42615312Y-143553104D02*
X42158169Y-143553104D01*
X42386741Y-143553104D02*
X42386741Y-144353104D01*
X42386741Y-144353104D02*
X42310550Y-144238819D01*
X42310550Y-144238819D02*
X42234360Y-144162628D01*
X42234360Y-144162628D02*
X42158169Y-144124533D01*
D12*
%TO.C,U4*%
X118710000Y-143910000D02*
X121910000Y-143910000D01*
X118710000Y-148290000D02*
X118710000Y-143910000D01*
X122280000Y-144380000D02*
X121910000Y-143910000D01*
X122280000Y-148280000D02*
X122280000Y-144380000D01*
%TO.C,U5*%
X42220000Y-145220000D02*
X42220000Y-149120000D01*
X42220000Y-149120000D02*
X42590000Y-149590000D01*
X45790000Y-145210000D02*
X45790000Y-149590000D01*
X45790000Y-149590000D02*
X42590000Y-149590000D01*
%TD*%
M02*
